<?xml version="1.0"?>
<svg xmlns="http://www.w3.org/2000/svg" viewBox="0 0 64 64" width="512" height="512"><g id="Outline"><g><path d="M61,34H58a2,2,0,0,1-2-2V20a2,2,0,0,1,2-2h3a1,1,0,0,0,0-2H58a4,4,0,0,0-4,4v1H51a4.977,4.977,0,0,0-3.974,2H39a2.98,2.98,0,0,0-2.272,1.064L33.85,19.078l1.731-1,1.679,2.908a1,1,0,1,0,1.732-1l-1.679-2.909L44.5,12.929a1,1,0,0,0,.366-1.366l-2.5-4.33-1-1.732A7.009,7.009,0,0,0,31.8,2.938L21.942,8.632a1,1,0,0,0,1,1.732L32.8,4.671a5.005,5.005,0,0,1,6.83,1.83l.5.866-18.187,10.5a7,7,0,0,1-9-1.731l6.533-3.772a1,1,0,1,0-1-1.732L11.02,14.938a1,1,0,0,0-.367,1.367A8.957,8.957,0,0,0,13.47,19.3l-.817.472a1,1,0,0,0-.366,1.366l2.5,4.33a1,1,0,0,0,1.366.366l5.2-3,1,1.732a1,1,0,0,0,1.366.366l8.4-4.85L36.4,27.5l.012-.007A2.992,2.992,0,0,0,39,29h8.026A4.977,4.977,0,0,0,51,31h3v1a4,4,0,0,0,4,4h3a1,1,0,0,0,0-2ZM16.02,23.6,14.52,21l1.131-.653c.155.051.308.107.467.15a9.042,9.042,0,0,0,2.344.311,8.917,8.917,0,0,0,1.622-.168l.265.458Zm7.562-.9-1-1.73v0l-.533-.921a9.015,9.015,0,0,0,.9-.444L41.134,9.1l1.5,2.6ZM39,27a1,1,0,0,1,0-2h7.1a5,5,0,0,0,0,2Zm12,2a3,3,0,0,1,0-6h3v6Z"/><path d="M19.581,15.769a1,1,0,0,0,1.366.366l12.99-7.5a1,1,0,1,0-1-1.732l-12.99,7.5A1,1,0,0,0,19.581,15.769Z"/><circle cx="51" cy="26" r="1"/><path d="M42.172,40.172a1,1,0,0,0,1.414,1.414,2.047,2.047,0,0,1,2.828,0,1,1,0,0,0,1.414-1.414A4.093,4.093,0,0,0,42.172,40.172Z"/><path d="M39.343,37.343a1,1,0,0,0,1.414,1.414,6.008,6.008,0,0,1,8.486,0,1,1,0,0,0,1.414-1.414A8.01,8.01,0,0,0,39.343,37.343Z"/><circle cx="45" cy="44" r="1"/><path d="M33,38H7a5.006,5.006,0,0,0-5,5V57a5.006,5.006,0,0,0,5,5H23a1,1,0,0,0,0-2H7a3,3,0,0,1-3-3V43a3,3,0,0,1,3-3H33a3,3,0,0,1,3,3V57a3,3,0,0,1-3,3H27a1,1,0,0,0,0,2h6a5.006,5.006,0,0,0,5-5V43A5.006,5.006,0,0,0,33,38Z"/><path d="M34,53V47a1,1,0,0,0-2,0v6a1,1,0,0,0,2,0Z"/><circle cx="7" cy="43" r="1"/><circle cx="7" cy="47" r="1"/><path d="M26,50h1a1,1,0,0,0,.65-1.759l-7-6a1,1,0,0,0-1.3,0l-7,6A1,1,0,0,0,13,50H24v6H16V53a1,1,0,0,0-2,0v4a1,1,0,0,0,1,1H25a1,1,0,0,0,1-1Zm-6-5.683L24.3,48H15.7Z"/><path d="M22.828,29.828a1,1,0,0,0-1.414-1.414,2.047,2.047,0,0,1-2.828,0,1,1,0,0,0-1.414,1.414,4,4,0,0,0,5.656,0Z"/><path d="M14.343,31.243a1,1,0,0,0,0,1.414,8.01,8.01,0,0,0,11.314,0,1,1,0,1,0-1.414-1.414,6.008,6.008,0,0,1-8.486,0A1,1,0,0,0,14.343,31.243Z"/><path d="M45,47a1,1,0,0,0-1,1v3H41a1,1,0,0,0,0,2h4a1,1,0,0,0,1-1V48A1,1,0,0,0,45,47Z"/></g></g></svg>
