<?xml version='1.0' encoding='iso-8859-1'?>
<!DOCTYPE svg PUBLIC '-//W3C//DTD SVG 1.1//EN' 'http://www.w3.org/Graphics/SVG/1.1/DTD/svg11.dtd'>
<svg version="1.1" xmlns="http://www.w3.org/2000/svg" viewBox="0 0 433.092 433.092" xmlns:xlink="http://www.w3.org/1999/xlink" enable-background="new 0 0 433.092 433.092">
  <path d="m309.58,38.155c-25.445-25.093-59.185-38.635-94.916-38.142-72.308,1.004-130.902,60.677-130.617,133.02 0.083,21.046 4.958,41.155 14.489,59.769 16.035,31.315 24.51,67.399 24.51,104.351v42.061c0,37.271 28.518,68.001 64.878,71.532 3.206,12.82 14.819,22.346 28.618,22.346 13.799,0 25.412-9.525 28.618-22.345 36.364-3.527 64.886-34.258 64.886-71.533v-42.773c0-35.689 8.681-71.934 25.104-104.814 9.22-18.459 13.896-38.352 13.896-59.127 0-35.741-14.016-69.246-39.466-94.345zm-14.534,282.937v15h-157v-15h157zm-85.224-218.5c0-2.757 2.243-5 5-5s5,2.243 5,5-2.243,5-5,5-5-2.243-5-5zm-14.898,293.5c-14.809,0-28.309-5.693-38.44-15h120.125c-10.131,9.307-23.631,15-38.44,15h-43.245zm-50.112-30c-2.505-4.651-4.377-9.69-5.51-15h154.486c-1.133,5.31-3.005,10.349-5.51,15h-143.466zm71.73,52c-5.248,0-9.84-2.812-12.386-7h24.772c-2.546,4.187-7.138,7-12.386,7zm105.189-233.168c-17.458,34.951-26.686,73.513-26.686,111.517v9.651h-42.974v-134.643l18.857-18.857c2.491,1.116 5.242,1.75 8.143,1.75 11.028,0 20-8.972 20-20s-8.972-20-20-20-20,8.972-20,20c0,2.631 0.524,5.139 1.451,7.442l-21.254,21.255c-1.407,1.406-2.197,3.314-2.197,5.303v137.75h-14.75v-184.973c7.32-2.974 12.5-10.152 12.5-18.528 0-11.028-8.972-20-20-20s-20,8.972-20,20c0,8.375 5.18,15.553 12.5,18.528v184.972h-14.75v-80.5c0-1.989-0.79-3.897-2.197-5.303l-21.255-21.255c0.928-2.303 1.451-4.811 1.451-7.442 0-11.028-8.972-20-20-20s-20,8.972-20,20 8.972,20 20,20c2.901,0 5.652-0.635 8.143-1.751l18.857,18.857v77.393h-39.526v-8.939c0-39.318-9.045-77.766-26.158-111.187-8.447-16.496-12.767-34.325-12.84-52.992-0.252-64.152 51.707-117.07 115.826-117.96 31.726-0.433 61.612,11.572 84.175,33.824 22.569,22.257 34.998,51.97 34.998,83.664 0.001,18.427-4.142,36.065-12.314,52.424zm-47.659-50.582c0-2.757 2.243-5 5-5s5,2.243 5,5-2.243,5-5,5-5-2.243-5-5zm-123.5,62.25c-2.757,0-5-2.243-5-5s2.243-5 5-5 5,2.243 5,5-2.244,5-5,5z"/>
</svg>
