<?xml version='1.0' encoding='iso-8859-1'?>
<!DOCTYPE svg PUBLIC '-//W3C//DTD SVG 1.1//EN' 'http://www.w3.org/Graphics/SVG/1.1/DTD/svg11.dtd'>
<svg version="1.1" xmlns="http://www.w3.org/2000/svg" viewBox="0 0 453.5 453.5" xmlns:xlink="http://www.w3.org/1999/xlink" enable-background="new 0 0 453.5 453.5">
  <path d="m433.5,205.856c-8.375,0-15.553,5.18-18.528,12.5h-149.116v-17.5h65.856c1.989,0 3.896-0.79 5.304-2.197l15.161-15.161c2.7,1.361 5.738,2.146 8.962,2.146 11.028,0 20-8.972 20-20s-8.972-20-20-20-20,8.972-20,20c0,2.298 0.409,4.497 1.125,6.553l-13.658,13.659h-62.75v-20.75l13.857-13.857c2.491,1.116 5.242,1.75 8.143,1.75 11.028,0 20-8.972 20-20s-8.972-20-20-20-20,8.972-20,20c0,2.631 0.524,5.139 1.451,7.442l-16.255,16.255c-1.406,1.406-2.196,3.314-2.196,5.303v23.856h-17.5v-147.327c7.32-2.974 12.5-10.152 12.5-18.528 0-11.028-8.972-20-20-20s-20,8.972-20,20c0,8.375 5.18,15.553 12.5,18.528v147.329h-17.5v-64.069c0-1.989-0.79-3.897-2.196-5.303l-15.163-15.161c1.361-2.7 2.146-5.738 2.146-8.963 0-11.028-8.972-20-20-20s-20,8.972-20,20 8.972,20 20,20c2.297,0 4.496-0.409 6.553-1.125l13.66,13.659v60.962h-60.963l-13.659-13.66c0.716-2.056 1.125-4.255 1.125-6.553 0-11.028-8.972-20-20-20s-20,8.972-20,20 8.972,20 20,20c3.224,0 6.263-0.785 8.963-2.146l15.161,15.162c1.407,1.406 3.314,2.197 5.304,2.197h64.069v17.5h-147.328c-2.974-7.32-10.152-12.5-18.528-12.5-11.028,0-20,8.972-20,20s8.972,20 20,20c8.375,0 15.553-5.18 18.528-12.5h147.329v17.5h-23.857c-1.989,0-3.896,0.79-5.304,2.197l-16.254,16.254c-2.303-0.927-4.811-1.451-7.442-1.451-11.028,0-20,8.972-20,20s8.972,20 20,20 20-8.972 20-20c0-2.901-0.635-5.652-1.75-8.143l13.857-13.857h20.75v62.75l-13.66,13.659c-2.056-0.716-4.255-1.125-6.553-1.125-11.028,0-20,8.972-20,20s8.972,20 20,20 20-8.972 20-20c0-3.224-0.785-6.263-2.146-8.963l15.163-15.161c1.406-1.406 2.196-3.314 2.196-5.303v-65.856h17.5v149.116c-7.32,2.974-12.5,10.152-12.5,18.528 0,11.028 8.972,20 20,20s20-8.972 20-20c0-8.375-5.18-15.553-12.5-18.528v-149.118h17.5v25.644c0,1.989 0.79,3.897 2.196,5.303l16.255,16.255c-0.927,2.303-1.451,4.811-1.451,7.442 0,11.028 8.972,20 20,20s20-8.972 20-20-8.972-20-20-20c-2.901,0-5.652,0.635-8.143,1.75l-13.857-13.857v-22.537h22.537l13.857,13.857c-1.116,2.491-1.75,5.242-1.75,8.143 0,11.028 8.972,20 20,20s20-8.972 20-20-8.972-20-20-20c-2.631,0-5.139,0.524-7.442,1.451l-16.254-16.254c-1.407-1.406-3.314-2.197-5.304-2.197h-25.644v-17.5h149.116c2.974,7.32 10.152,12.5 18.528,12.5 11.028,0 20-8.972 20-20s-8.973-20-20.001-20zm-72.36-45.212c2.757,0 5,2.243 5,5s-2.243,5-5,5-5-2.243-5-5 2.243-5 5-5zm-73.284-32.644c2.757,0 5,2.243 5,5s-2.243,5-5,5-5-2.243-5-5 2.244-5 5-5zm-62-113c2.757,0 5,2.243 5,5s-2.243,5-5,5-5-2.243-5-5 2.244-5 5-5zm-65.212,77.36c0-2.757 2.243-5 5-5s5,2.243 5,5-2.243,5-5,5-5-2.243-5-5zm-68.285,78.284c-2.757,0-5-2.243-5-5s2.243-5 5-5 5,2.243 5,5-2.243,5-5,5zm-72.359,60.212c-2.757,0-5-2.243-5-5s2.243-5 5-5 5,2.243 5,5-2.243,5-5,5zm113,62c-2.757,0-5-2.243-5-5s2.243-5 5-5 5,2.243 5,5-2.243,5-5,5zm32.644,73.284c-2.757,0-5-2.243-5-5s2.243-5 5-5 5,2.243 5,5-2.244,5-5,5zm60.212,72.36c-2.757,0-5-2.243-5-5s2.243-5 5-5 5,2.243 5,5-2.243,5-5,5zm67-118c0,2.757-2.243,5-5,5s-5-2.243-5-5 2.243-5 5-5 5,2.243 5,5zm32.644-32.644c0,2.757-2.243,5-5,5s-5-2.243-5-5 2.243-5 5-5 5,2.243 5,5zm-74.644-87v17.5h-17.5v-17.5h17.5zm-50,0h17.5v17.5h-17.5v-17.5zm0,50v-17.5h17.5v17.5h-17.5zm50,0h-17.5v-17.5h17.5v17.5zm182.644-20c-2.757,0-5-2.243-5-5s2.243-5 5-5 5,2.243 5,5-2.243,5-5,5z"/>
</svg>
