<?xml version="1.0"?>
<svg xmlns="http://www.w3.org/2000/svg" viewBox="0 0 64 64" width="512" height="512"><g id="Outline"><g><path d="M22.316,43.052A1,1,0,0,0,21.2,43.4l-6,8A1,1,0,0,0,16,53h2.819l-.8,4.836a1,1,0,0,0,1.775.778l7-9A1,1,0,0,0,26,48H23V44A1,1,0,0,0,22.316,43.052ZM23.955,50l-3.319,4.268.35-2.1A1,1,0,0,0,20,51H18l3-4v2a1,1,0,0,0,1,1Z"/><path d="M36,29a1,1,0,0,0,0,2h3v2H37a1,1,0,0,0,0,2H49a1,1,0,0,0,0-2H47V31h3a1,1,0,0,0,1-1V21a1,1,0,0,0-1-1H36a1,1,0,0,0-1,1v5a1,1,0,0,0,2,0V22h3.586l7,7Zm9,4H41V31h4Zm4-11v5.586L43.414,22Z"/><path d="M45,51V46a1,1,0,0,0-2,0v5a1,1,0,0,0,2,0Z"/><path d="M40.6,47.226a1,1,0,0,0-1.4.2A5.937,5.937,0,0,0,38,51a6,6,0,0,0,12,0,5.937,5.937,0,0,0-1.2-3.569,1,1,0,0,0-1.6,1.193A3.956,3.956,0,0,1,48,51a4,4,0,0,1-8,0,3.956,3.956,0,0,1,.8-2.376A1,1,0,0,0,40.6,47.226Z"/><path d="M17,28a2.991,2.991,0,0,0-.915,5.842,4.984,4.984,0,0,0,9.83,0A2.981,2.981,0,0,0,26,28.184v-.3a7,7,0,1,0-11.594-2.554,1,1,0,0,0,1.885-.67,5,5,0,1,1,8.041,2.054,1,1,0,0,0-.332.744V28H22V25.414l1.707-1.707a1,1,0,0,0-1.414-1.414L21,23.586l-1.293-1.293a1,1,0,0,0-1.414,1.414L20,25.414V28Zm4,8a3.006,3.006,0,0,1-2.829-2h5.658A3.006,3.006,0,0,1,21,36Zm4-4H17a1,1,0,0,1,0-2h8a1,1,0,0,1,0,2Z"/><path d="M61.567,22.177,51,14.889V3a1,1,0,0,0-1-1H42a1,1,0,0,0-1,1V7.992L32.567,2.177a.993.993,0,0,0-1.134,0l-29,20A1,1,0,0,0,2,23v3a1,1,0,0,0,1,1H8v5a1,1,0,0,0,2,0V26a1,1,0,0,0-1-1H4V23.525L32,4.215l9.433,6.505A1,1,0,0,0,43,9.9V4h6V15.414a1,1,0,0,0,.433.823L60,23.525V25H55a1,1,0,0,0-1,1V40H33V9a1,1,0,0,0-2,0V40H13a1,1,0,0,0,0,2H31V57a1,1,0,0,0,2,0V42H54v5a1,1,0,0,0,2,0V27h5a1,1,0,0,0,1-1V23A1,1,0,0,0,61.567,22.177Z"/><path d="M61,56H56V51a1,1,0,0,0-2,0v6a1,1,0,0,0,1,1h5v2H4V58H9a1,1,0,0,0,1-1V36a1,1,0,0,0-2,0V56H3a1,1,0,0,0-1,1v4a1,1,0,0,0,1,1H61a1,1,0,0,0,1-1V57A1,1,0,0,0,61,56Z"/></g></g></svg>
