<?xml version="1.0"?>
<svg xmlns="http://www.w3.org/2000/svg" viewBox="0 0 64 64" width="512" height="512"><g id="Outline"><g><path d="M16.573,44.08A1,1,0,0,0,17,43.26V37a1,1,0,0,0-2,0v5.76a8,8,0,1,0,10,0V26a5,5,0,0,0-10,0v7a1,1,0,0,0,2,0V26a3,3,0,0,1,6,0v2H21V26a1,1,0,0,0-2,0V45.142A3.993,3.993,0,1,0,24,49a1,1,0,0,0-2,0,2,2,0,1,1-2-2,1,1,0,0,0,1-1V42h2v1.26a1,1,0,0,0,.427.82,6,6,0,1,1-6.854,0ZM21,34h2v2H21Zm2-4v2H21V30ZM21,40V38h2v2Z"/><path d="M33,52a1,1,0,0,0-1,1v4a1,1,0,0,0,1,1h4a1,1,0,0,0,0-2H34V54h3a1,1,0,0,0,1-1V49a1,1,0,0,0-1-1H33a1,1,0,0,0,0,2h3v2Z"/><path d="M41,56a1,1,0,0,0,0,2h4a1,1,0,0,0,1-1V53a1,1,0,0,0-1-1H42V50h3a1,1,0,0,0,0-2H41a1,1,0,0,0-1,1v4a1,1,0,0,0,1,1h3v2Z"/><circle cx="47" cy="46" r="1"/><path d="M49,29A10,10,0,1,0,39,39,10.011,10.011,0,0,0,49,29ZM31,29a8,8,0,1,1,8,8A8.009,8.009,0,0,1,31,29Z"/><path d="M40.414,30.586a1,1,0,0,0,1.414-1.414,4.093,4.093,0,0,0-5.656,0,1,1,0,0,0,1.414,1.414A2.047,2.047,0,0,1,40.414,30.586Z"/><path d="M43.243,27.757a1,1,0,1,0,1.414-1.414,8,8,0,0,0-11.314,0,1,1,0,1,0,1.414,1.414,6,6,0,0,1,8.486,0Z"/><circle cx="39" cy="33" r="1"/><path d="M61.568,22.177,51,14.889V3a1,1,0,0,0-1-1H42a1,1,0,0,0-1,1V7.992L32.568,2.177a1,1,0,0,0-1.136,0l-29,20A1,1,0,0,0,2,23v3a1,1,0,0,0,1,1H8v5a1,1,0,0,0,2,0V26a1,1,0,0,0-1-1H4V23.525L32,4.215l9.432,6.505A1,1,0,0,0,43,9.9V4h6V15.414a1,1,0,0,0,.432.823L60,23.525V25H55a1,1,0,0,0-1,1V47a1,1,0,0,0,2,0V27h5a1,1,0,0,0,1-1V23A1,1,0,0,0,61.568,22.177Z"/><path d="M61,56H56V51a1,1,0,0,0-2,0v6a1,1,0,0,0,1,1h5v2H52V42a1,1,0,0,0-1-1H28a1,1,0,0,0,0,2H50V60H28V57a1,1,0,0,0-2,0v3H4V58H9a1,1,0,0,0,1-1V36a1,1,0,0,0-2,0V56H3a1,1,0,0,0-1,1v4a1,1,0,0,0,1,1H61a1,1,0,0,0,1-1V57A1,1,0,0,0,61,56Z"/></g></g></svg>
